<svg xmlns="http://www.w3.org/2000/svg" xmlns:xlink="http://www.w3.org/1999/xlink" viewBox="0 0 16 16" fill="#FFFFFF">
  <path d="M25,2C12.317,2,2,12.317,2,25s10.317,23,23,23s23-10.317,23-23S37.683,2,25,2z M24.929,32l10.936,10.936 c-0.593,0.361-1.205,0.692-1.835,0.994L20,29.899v15.474c-0.681-0.167-1.347-0.367-2-0.599V24.928L7.063,35.865 C6.702,35.271,6.371,34.66,6.07,34.03L20.1,20H4.627c0.167-0.681,0.367-1.347,0.599-2h19.845L14.135,7.064 c0.593-0.361,1.205-0.692,1.834-0.994L30,20.101V4.627c0.681,0.167,1.347,0.367,2,0.599v19.846l10.936-10.936 c0.361,0.593,0.692,1.205,0.994,1.835L29.899,30h15.474c-0.167,0.681-0.367,1.347-0.599,2H24.929z" fill="#FFFFFF" />
</svg>