<svg xmlns="http://www.w3.org/2000/svg" xmlns:xlink="http://www.w3.org/1999/xlink" width="48" height="48" viewBox="0 0 48 48"><path fill="rgb(170, 151, 126)" d="M2 9H46V39H2z"/><path fill="#fff" d="M42 24L24 36 6 24 24 12z"/><path fill="rgb(170, 151, 126)" d="M24 17A7 7 0 1 0 24 31A7 7 0 1 0 24 17Z"/><path fill="#FFF" d="M17.805,20.748c-0.339,0.644-0.576,1.347-0.7,2.089c2.254-0.28,8.381-0.562,13.534,3.372C30.87,25.514,31,24.772,31,24c0,0,0-0.004,0-0.006C26.058,20.646,20.658,20.51,17.805,20.748z"/></svg>