<svg xmlns="http://www.w3.org/2000/svg" xmlns:xlink="http://www.w3.org/1999/xlink" viewBox="0 0 64 64" fill="#FFFFFF">
  <path d="M31 2C15.011719 2 2 15.007813 2 31C2 46.992188 15.011719 60 31 60C46.988281 60 60 46.992188 60 31C60 15.007813 46.988281 2 31 2 Z M 31 4C45.886719 4 58 16.113281 58 31C58 45.886719 45.886719 58 31 58C16.113281 58 4 45.886719 4 31C4 16.113281 16.113281 4 31 4 Z M 30.5625 8.007813C24.671875 8.125 18.960938 10.511719 14.734375 14.734375C5.769531 23.703125 5.769531 38.292969 14.734375 47.261719C14.929688 47.457031 15.1875 47.554688 15.441406 47.554688C15.699219 47.554688 15.957031 47.457031 16.152344 47.261719C16.542969 46.871094 16.542969 46.238281 16.152344 45.847656C7.960938 37.660156 7.964844 24.339844 16.152344 16.152344C20.898438 11.402344 27.699219 9.203125 34.339844 10.265625C34.882813 10.355469 35.398438 9.980469 35.484375 9.4375C35.574219 8.890625 35.199219 8.375 34.65625 8.289063C33.292969 8.070313 31.925781 7.976563 30.5625 8.007813 Z M 38.65625 9.386719C38.269531 9.402344 37.910156 9.648438 37.765625 10.035156C37.570313 10.554688 37.832031 11.128906 38.351563 11.324219C39.066406 11.589844 39.769531 11.898438 40.453125 12.238281C40.597656 12.3125 40.75 12.347656 40.902344 12.347656C41.265625 12.347656 41.617188 12.148438 41.796875 11.796875C42.042969 11.304688 41.84375 10.703125 41.351563 10.453125C40.609375 10.078125 39.832031 9.742188 39.050781 9.449219C38.921875 9.402344 38.789063 9.382813 38.65625 9.386719 Z M 44.433594 12.675781C44.179688 12.707031 43.9375 12.832031 43.765625 13.050781C43.425781 13.484375 43.5 14.113281 43.9375 14.453125C44.605469 14.976563 45.246094 15.546875 45.847656 16.152344C54.039063 24.339844 54.039063 37.660156 45.847656 45.847656C45.457031 46.242188 45.457031 46.871094 45.847656 47.265625C46.042969 47.457031 46.300781 47.558594 46.558594 47.558594C46.8125 47.558594 47.070313 47.457031 47.265625 47.265625C56.230469 38.296875 56.230469 23.703125 47.265625 14.734375C46.605469 14.078125 45.902344 13.453125 45.171875 12.878906C44.953125 12.710938 44.683594 12.644531 44.433594 12.675781 Z M 22.515625 21.515625C22.261719 21.515625 22.003906 21.613281 21.808594 21.808594C21.417969 22.199219 21.417969 22.832031 21.808594 23.222656L29.585938 31L21.808594 38.777344C21.417969 39.167969 21.417969 39.800781 21.808594 40.191406C22.003906 40.386719 22.257813 40.484375 22.515625 40.484375C22.773438 40.484375 23.027344 40.386719 23.222656 40.191406L31 32.414063L38.777344 40.191406C38.972656 40.386719 39.226563 40.484375 39.484375 40.484375C39.742188 40.484375 39.996094 40.386719 40.191406 40.191406C40.582031 39.800781 40.582031 39.167969 40.191406 38.777344L32.414063 31L40.191406 23.222656C40.582031 22.832031 40.582031 22.199219 40.191406 21.808594C39.800781 21.417969 39.167969 21.417969 38.777344 21.808594L31 29.585938L23.222656 21.808594C23.027344 21.613281 22.769531 21.515625 22.515625 21.515625 Z M 21.375 47.394531C20.984375 47.347656 20.589844 47.527344 20.386719 47.886719L19.386719 49.621094C19.109375 50.097656 19.273438 50.707031 19.75 50.984375C19.90625 51.074219 20.078125 51.121094 20.25 51.121094C20.59375 51.121094 20.929688 50.941406 21.113281 50.621094L22.113281 48.886719C22.390625 48.410156 22.230469 47.796875 21.75 47.519531C21.628906 47.453125 21.5 47.410156 21.375 47.394531 Z M 40.625 47.394531C40.496094 47.410156 40.367188 47.453125 40.25 47.519531C39.769531 47.796875 39.609375 48.410156 39.886719 48.890625L40.886719 50.621094C41.070313 50.941406 41.40625 51.121094 41.75 51.121094C41.921875 51.121094 42.09375 51.078125 42.25 50.984375C42.730469 50.710938 42.890625 50.097656 42.613281 49.621094L41.613281 47.890625C41.40625 47.53125 41.011719 47.347656 40.625 47.394531 Z M 25.816406 49.34375C25.429688 49.398438 25.09375 49.675781 24.984375 50.078125L24.46875 52.011719C24.324219 52.542969 24.644531 53.089844 25.175781 53.234375C25.261719 53.257813 25.347656 53.269531 25.4375 53.269531C25.875 53.269531 26.28125 52.972656 26.402344 52.527344L26.921875 50.59375C27.0625 50.0625 26.746094 49.511719 26.214844 49.371094C26.078125 49.332031 25.945313 49.324219 25.816406 49.34375 Z M 36.1875 49.34375C36.058594 49.324219 35.921875 49.332031 35.785156 49.371094C35.253906 49.511719 34.9375 50.0625 35.078125 50.59375L35.597656 52.527344C35.71875 52.972656 36.121094 53.269531 36.5625 53.269531C36.652344 53.269531 36.738281 53.257813 36.824219 53.234375C37.355469 53.089844 37.675781 52.542969 37.53125 52.011719L37.015625 50.078125C36.90625 49.675781 36.570313 49.398438 36.1875 49.34375 Z M 31 50C30.445313 50 30 50.449219 30 51L30 53C30 53.550781 30.445313 54 31 54C31.554688 54 32 53.550781 32 53L32 51C32 50.449219 31.554688 50 31 50Z" fill="#FFFFFF" />
</svg>